<svg width="36" height="36" viewBox="0 0 36 36" fill="none" xmlns="http://www.w3.org/2000/svg">
<path d="M24.9298 4.48493C24.7556 4.31032 24.5487 4.17179 24.3209 4.07726C24.0931 3.98274 23.8489 3.93408 23.6023 3.93408C23.3556 3.93408 23.1114 3.98274 22.8836 4.07726C22.6558 4.17179 22.4489 4.31032 22.2748 4.48493L9.80976 16.9499C9.6707 17.0887 9.56038 17.2535 9.48511 17.435C9.40984 17.6165 9.37109 17.811 9.37109 18.0074C9.37109 18.2039 9.40984 18.3984 9.48511 18.5799C9.56038 18.7613 9.6707 18.9262 9.80976 19.0649L22.2748 31.5299C23.0098 32.2649 24.1948 32.2649 24.9298 31.5299C25.6648 30.7949 25.6648 29.6099 24.9298 28.8749L14.0698 17.9999L24.9448 7.12493C25.6648 6.40493 25.6648 5.20493 24.9298 4.48493Z" fill="white"/>
</svg>
